<?xml version="1.0" encoding="utf-8"?>
<!-- Svg Vector Icons : http://www.onlinewebfonts.com/icon -->
<!DOCTYPE svg PUBLIC "-//W3C//DTD SVG 1.1//EN" "http://www.w3.org/Graphics/SVG/1.1/DTD/svg11.dtd">
<svg version="1.1" xmlns="http://www.w3.org/2000/svg" xmlns:xlink="http://www.w3.org/1999/xlink" x="0px" y="0px" viewBox="0 0 1000 1000" enable-background="new 0 0 1000 1000" xml:space="preserve">
<metadata> Svg Vector Icons : http://www.onlinewebfonts.com/icon </metadata>
<g><g transform="translate(0.000000,511.000000) scale(0.100000,-0.100000)"><path d="M8194.3,1749c-42.6-32.9-75.5-118.2-60-160.8c5.8-19.4,300.3-325.5,652.9-678.1L9428.4,265h-751.7c-432,0-767.2-7.7-786.6-17.4c-40.7-23.3-65.9-79.4-197.6-437.8c-112.4-306.1-244.1-577.3-277.1-565.7c-52.3,15.5-164.7,275.1-389.4,885.4c-213.1,583.1-379.7,788.5-604.5,745.9c-170.5-31-315.8-253.8-509.5-774.9c-220.9-602.5-327.4-840.8-379.7-856.3c-36.8-11.6-170.5,273.2-327.4,701.3c-232.5,633.5-335.2,819.5-496,900.9c-93,48.4-155,48.4-248,0c-158.9-79.4-249.9-244.1-482.4-862.1c-172.4-457.2-273.2-685.8-319.7-722.6c-25.2-21.3-36.8-15.5-79.4,48.4c-48.4,71.7-184,401-331.3,809.8c-38.8,106.6-112.4,282.9-164.7,389.4c-184,381.7-404.9,474.7-621.9,257.7c-93-93-217-348.7-354.5-726.5c-203.4-563.8-317.7-813.7-366.2-796.3c-42.6,13.6-149.2,246-304.2,662.6c-189.9,515.3-306.1,761.4-404.9,860.2C828.4,970.2,605.6,892.7,433.2,561.4C338.3,379.3,100-258.1,100-325.9c0-114.3,160.8-186,248-110.4c21.3,17.4,83.3,155,139.5,313.9c120.1,335.2,282.9,683.9,315.8,674.2c44.6-15.5,155-255.7,325.5-707.1c209.2-558,288.7-718.8,406.8-829.2c149.2-139.5,292.5-135.6,439.8,11.6c102.7,100.7,199.6,306.1,391.4,821.4c158.9,426.2,279,689.7,323.5,703.3c34.9,9.7,197.6-342.9,344.8-751.7c209.2-575.4,319.7-773,476.6-852.4c93-48.4,155-48.4,248,0c158.9,81.4,255.7,253.8,492.1,881.5c168.6,449.5,228.6,589,286.7,672.3l42.6,60.1l46.5-56.2c54.2-67.8,156.9-310,327.4-773c197.6-538.6,294.5-703.3,455.3-786.6c94.9-46.5,139.5-46.5,246.1,3.9c156.9,77.5,253.8,253.8,488.2,883.4c160.8,437.8,282.8,705.2,323.5,716.8c46.5,15.5,164.7-240.2,381.7-836.9c186-511.5,323.5-730.4,484.3-784.6c236.3-77.5,408.8,125.9,649,765.3l93,251.9l676.1,5.8l676.1,3.9l-641.3-643.2c-352.6-354.5-647.1-660.6-652.9-680c-15.5-42.6,17.4-127.9,60-160.8c17.5-15.5,60.1-27.1,91.1-27.1c50.4,0,151.1,93,819.5,761.4c581.2,581.2,763.3,774.9,778.8,827.2c44.6,156.9,56.2,143.4-771.1,974.5c-676.2,676.1-774.9,769.1-827.2,769.1C8254.4,1776.1,8211.7,1764.5,8194.3,1749z"/></g></g>
</svg>